<svg width="7" height="7" viewBox="0 0 7 7" fill="none" xmlns="http://www.w3.org/2000/svg">
<path d="M4.375 0C4.13301 0 3.9375 0.195508 3.9375 0.4375C3.9375 0.679492 4.13301 0.875 4.375 0.875H5.50566L2.75352 3.62852C2.58262 3.79941 2.58262 4.07695 2.75352 4.24785C2.92441 4.41875 3.20195 4.41875 3.37285 4.24785L6.125 1.49434V2.625C6.125 2.86699 6.32051 3.0625 6.5625 3.0625C6.80449 3.0625 7 2.86699 7 2.625V0.4375C7 0.195508 6.80449 0 6.5625 0H4.375ZM1.09375 0.4375C0.489453 0.4375 0 0.926953 0 1.53125V5.90625C0 6.51055 0.489453 7 1.09375 7H5.46875C6.07305 7 6.5625 6.51055 6.5625 5.90625V4.375C6.5625 4.13301 6.36699 3.9375 6.125 3.9375C5.88301 3.9375 5.6875 4.13301 5.6875 4.375V5.90625C5.6875 6.02656 5.58906 6.125 5.46875 6.125H1.09375C0.973437 6.125 0.875 6.02656 0.875 5.90625V1.53125C0.875 1.41094 0.973437 1.3125 1.09375 1.3125H2.625C2.86699 1.3125 3.0625 1.11699 3.0625 0.875C3.0625 0.633008 2.86699 0.4375 2.625 0.4375H1.09375Z" fill="#444444"/>
</svg>
