<svg width="63" height="57" viewBox="0 0 63 57" fill="none" xmlns="http://www.w3.org/2000/svg">
<path d="M31.5 0.9375C33.2472 0.9375 34.8592 1.86035 35.7451 3.37383L62.3232 48.6551C63.2215 50.1809 63.2215 52.0635 62.3478 53.5893C61.4742 55.115 59.8377 56.0625 58.0781 56.0625H4.92185C3.16228 56.0625 1.52576 55.115 0.652123 53.5893C-0.221509 52.0635 -0.209205 50.1686 0.676733 48.6551L27.2549 3.37383C28.1408 1.86035 29.7527 0.9375 31.5 0.9375ZM31.5 16.6875C29.8635 16.6875 28.5468 18.0041 28.5468 19.6406V33.4219C28.5468 35.0584 29.8635 36.375 31.5 36.375C33.1365 36.375 34.4531 35.0584 34.4531 33.4219V19.6406C34.4531 18.0041 33.1365 16.6875 31.5 16.6875ZM35.4375 44.25C35.4375 43.2057 35.0226 42.2042 34.2842 41.4658C33.5458 40.7273 32.5443 40.3125 31.5 40.3125C30.4557 40.3125 29.4542 40.7273 28.7157 41.4658C27.9773 42.2042 27.5625 43.2057 27.5625 44.25C27.5625 45.2943 27.9773 46.2958 28.7157 47.0342C29.4542 47.7727 30.4557 48.1875 31.5 48.1875C32.5443 48.1875 33.5458 47.7727 34.2842 47.0342C35.0226 46.2958 35.4375 45.2943 35.4375 44.25Z" fill="#FFA826"/>
</svg>
